<?xml version="1.0" encoding="UTF-8" standalone="no"?>
<svg width="2020px" height="606px" viewBox="0 0 2020 606" version="1.1" xmlns="http://www.w3.org/2000/svg" xmlns:xlink="http://www.w3.org/1999/xlink">
    <!-- Generator: Sketch 41.2 (35397) - http://www.bohemiancoding.com/sketch -->
    <title>Group 20 Copy</title>
    <desc>Created with Sketch.</desc>
    <defs></defs>
    <g id="Page-1" stroke="none" stroke-width="1" fill="none" fill-rule="evenodd">
        <g id="Group-20-Copy" fill="#FFFFFF">
            <path d="M359.993873,113.111618 C433.733107,65.7074443 639.545552,203.969933 861.860418,210.729368 C1084.17529,217.488802 1051.21517,113.36228 1323.04856,142.393085 C1594.88195,171.42389 1680.71479,224.882859 1787.11421,309.543066 C1893.51364,394.203273 2259.48184,426.302439 1774.36684,501.499349 C1289.25185,576.696258 720.754544,627.532749 365.326859,529.932078 C9.89917431,432.331406 286.25464,160.515793 359.993873,113.111618 Z" id="Path-3" fill-opacity="0.5"></path>
            <path d="M360.534486,265.433566 C443.064497,198.000141 562.419974,138.822111 759.280659,151.458317 C1062.47369,170.919845 1102.17099,335.39891 1360.64191,329.629035 C1613.14486,323.992383 1697.3011,99.4427231 1781.22839,128.645264 C1911.23439,173.880919 2142.7063,392.657778 1788.50849,478.505425 C1436.08572,563.922853 816.740359,538.13508 367.987237,471.175414 C102.753358,431.59915 247.417786,357.858689 360.534486,265.433566 Z" id="Path-2" fill-opacity="0.6"></path>
            <path d="M1703.95689,5.44899877 C1596.17484,-42.1896307 1427.79723,237.908274 1178.59068,248.651064 C929.384124,259.393853 868.787048,49.219973 648.227192,50.9593682 C427.667337,52.6987634 362.916005,118.218029 250.756715,255.968215 C138.597426,393.718402 -244.243116,479.987421 236.186922,557.013072 C716.616961,634.038724 1389.31276,622.604012 1732.70322,493.563464 C2076.09368,364.522916 1811.73895,53.0876282 1703.95689,5.44899877 Z" id="Path-4" fill-opacity="0.2"></path>
        </g>
    </g>
</svg>