<?xml version="1.0" encoding="UTF-8" standalone="no"?>
<svg width="97px" height="90px" viewBox="0 0 97 90" version="1.1" xmlns="http://www.w3.org/2000/svg" xmlns:xlink="http://www.w3.org/1999/xlink">
    <!-- Generator: Sketch 41.2 (35397) - http://www.bohemiancoding.com/sketch -->
    <title>Group 5</title>
    <desc>Created with Sketch.</desc>
    <defs></defs>
    <g id="Page-1" stroke="none" stroke-width="1" fill="none" fill-rule="evenodd">
        <g id="Ivy" transform="translate(-448.000000, -211.000000)">
            <g id="Group-5" transform="translate(448.000000, 211.000000)">
                <g id="Group-2" transform="translate(13.000000, 10.000000)" fill="#4990E2">
                    <polygon id="Path" points="12.3628869 0.38 19.4928869 0.38 12.4028869 16.66 0.662886869 16.66"></polygon>
                    <polygon id="Path" points="22.9028869 16.66 30.0028869 0.38 40.7928869 0.38 47.9028869 16.66"></polygon>
                    <polygon id="Path" points="58.3528869 16.65 51.2928869 0.38 58.6328869 0.38 70.3328869 16.66"></polygon>
                </g>
                <path d="M96.0128869,26.53 L78.4928869,2.16 C77.5173924,0.806234871 75.9514975,0.00283034954 74.2828869,0 L22.7028869,0 C21.0342762,0.00283034954 19.4683813,0.806234871 18.4928869,2.16 L0.972886869,26.53 C-0.374399629,28.4130003 -0.317364384,30.9592166 1.11288687,32.78 L44.4228869,87.59 C45.4072468,88.8340385 46.9065085,89.5595652 48.4928869,89.5595652 C50.0792652,89.5595652 51.578527,88.8340385 52.5628869,87.59 L95.8728869,32.78 C97.3031381,30.9592166 97.3601734,28.4130003 96.0128869,26.53 Z M25.3628869,10.38 L32.4928869,10.38 L25.4028869,26.66 L13.6628869,26.66 L25.3628869,10.38 Z M17.1028869,36.27 L26.3428869,36.27 L34.3428869,58.1 L17.1028869,36.27 Z M48.4228869,68.54 L36.5828869,36.27 L60.2328869,36.27 L48.4228869,68.54 Z M35.9028869,26.66 L43.0028869,10.38 L53.7928869,10.38 L60.9028869,26.66 L35.9028869,26.66 Z M62.3528869,58.46 L70.4928869,36.27 L79.9128869,36.27 L62.3528869,58.46 Z M71.3528869,26.65 L64.2928869,10.38 L71.6328869,10.38 L83.3328869,26.66 L71.3528869,26.65 Z" id="Shape" fill="#FFFFFF"></path>
            </g>
        </g>
    </g>
</svg>