<svg id="Layer_1" data-name="Layer 1" xmlns="http://www.w3.org/2000/svg" viewBox="0 0 360 360"><defs><style>.cls-1{fill:#fff;}</style></defs><title>Artboard 1</title><path class="cls-1" d="M342.21,248a1,1,0,0,1-.76,0l-1.25-.45a1,1,0,0,1-.6-1.28l2.33-6.51-20.31-7.27a1,1,0,0,1-.6-1.28l.51-1.43a1,1,0,0,1,1.28-.6l20.31,7.27,2.33-6.51a1,1,0,0,1,1.28-.6l1.25.45a1,1,0,0,1,.6,1.28l-5.85,16.34A1,1,0,0,1,342.21,248Z"/><path class="cls-1" d="M328.08,274.91a1,1,0,0,1-.76-.09L306.53,263a1,1,0,0,1-.38-1.36l.75-1.32a1,1,0,0,1,1.36-.38l9.08,5.14,6.42-11.33-9.08-5.14a1,1,0,0,1-.38-1.36l.75-1.32a1,1,0,0,1,.59-.47.94.94,0,0,1,.77.1l20.8,11.78a1,1,0,0,1,.38,1.36l-.75,1.32a1,1,0,0,1-1.36.38l-8.82-5-6.42,11.33,8.82,5a1,1,0,0,1,.38,1.36l-.75,1.32A1,1,0,0,1,328.08,274.91Z"/><path class="cls-1" d="M301.15,274.09l-7.9,9.6a1,1,0,0,1-1.41.14l-1-.85a1,1,0,0,1-.14-1.41l9.5-11.54a1,1,0,0,1,1.41-.14L320,285.09a1,1,0,0,1,.14,1.41l-9.31,11.31a1,1,0,0,1-1.41.14l-1-.85a1,1,0,0,1-.14-1.41l7.71-9.37-6-5-7.2,8.74a1,1,0,0,1-1.41.14l-1-.85a1,1,0,0,1-.14-1.41l7.2-8.74Z"/><path class="cls-1" d="M279,325.33a1,1,0,0,1-.66-.38l-.8-1.06a1,1,0,0,1,.19-1.4l9.7-7.36-5.17-6.81-9.11,6.91a1,1,0,0,1-1.4-.19l-.81-1.06a1,1,0,0,1,.19-1.4l9.11-6.91-5.86-7.72a1,1,0,0,1,.19-1.4l1.21-.92a1,1,0,0,1,1.4.19l14.45,19a1,1,0,0,1-.19,1.4l-11.7,8.88A1,1,0,0,1,279,325.33Z"/><path class="cls-1" d="M256.07,313.23l-11,5.87a1,1,0,0,1-1.35-.41l-.63-1.17a1,1,0,0,1,.41-1.35l13.17-7.06a1,1,0,0,1,1.35.41l11.29,21.07a1,1,0,0,1-.41,1.35L256,338.85a1,1,0,0,1-1.35-.41l-.63-1.17a1,1,0,0,1,.41-1.35l10.7-5.73-3.69-6.88-10,5.35a1,1,0,0,1-1.35-.41l-.63-1.17a1,1,0,0,1,.41-1.35l10-5.35Z"/><path class="cls-1" d="M234,323.61l-11.75,4.05A1,1,0,0,1,221,327l-.43-1.26a1,1,0,0,1,.62-1.27l14.13-4.87a1,1,0,0,1,1.27.62l7.79,22.6a1,1,0,0,1-.62,1.27l-13.85,4.77a1,1,0,0,1-1.27-.62l-.43-1.26a1,1,0,0,1,.62-1.27l11.47-4-2.54-7.38L227,338.11a1,1,0,0,1-1.27-.62l-.43-1.26a1,1,0,0,1,.62-1.27l10.7-3.69Z"/><path class="cls-1" d="M197.46,332.34a1,1,0,0,1-.41-.64l-.23-1.31a1,1,0,0,1,.81-1.16l14.83-2.62a1,1,0,0,1,1.16.81L217.77,351a1,1,0,0,1-.81,1.16l-1.49.26a1,1,0,0,1-1.16-.81l-3.75-21.24-12.35,2.18A1,1,0,0,1,197.46,332.34Z"/><path class="cls-1" d="M190.24,330a1,1,0,0,1,.34.69L192,354.51a1,1,0,0,1-.94,1.05l-1.51.09a1,1,0,0,1-1.05-.94l-1.38-23.86a1,1,0,0,1,.94-1.05l1.51-.09A1,1,0,0,1,190.24,330Z"/><path class="cls-1" d="M162.29,329.41a3.93,3.93,0,0,1,.6.86l10.67,18.93L174.9,331a1,1,0,0,1,1.07-.92l1.51.11a1,1,0,0,1,.92,1.07l-1.75,23.84a1,1,0,0,1-1.07.92l-1.29-.09a1.18,1.18,0,0,1-.79-.35,4,4,0,0,1-.6-.86l-10.67-18.93L160.9,354a1,1,0,0,1-1.07.92l-1.51-.11a1,1,0,0,1-.92-1.07l1.75-23.84a1,1,0,0,1,1.07-.92l1.29.1A1.18,1.18,0,0,1,162.29,329.41Z"/><path class="cls-1" d="M130.16,348a9.44,9.44,0,0,1-2.66-3.64,6,6,0,0,1-.44-3.35.65.65,0,0,1,.36-.5.85.85,0,0,1,.63-.08l1.47.38c.55.14.86.37.94.67a8.68,8.68,0,0,0,1.69,3.69,8.43,8.43,0,0,0,9.14,1.68,6.83,6.83,0,0,0,3.25-4.37q.32-1.06.81-3t.74-3A6.54,6.54,0,0,0,141,328a7.53,7.53,0,0,0-5.4.33q-2.29,1.14-3.21,4.65l-.26,1,5.15,1.35a1,1,0,0,1,.71,1.22l-.34,1.29a1,1,0,0,1-1.22.71l-7.59-2a1,1,0,0,1-.71-1.22l.89-3.4a10.85,10.85,0,0,1,2.55-4.78,8.85,8.85,0,0,1,4.44-2.57,11.73,11.73,0,0,1,5.82.18q4.94,1.29,6.8,4.71a10.83,10.83,0,0,1,.86,7.82q-.24,1.08-.79,3.16t-.86,3.14a11.88,11.88,0,0,1-2.52,4.6,8.55,8.55,0,0,1-4.3,2.55,11.72,11.72,0,0,1-5.93-.2A11.86,11.86,0,0,1,130.16,348Z"/><path class="cls-1" d="M101.52,330a.84.84,0,0,1,.64,0l1.38.63a1.1,1.1,0,0,1,.54.43,2,2,0,0,1,.17.79,7,7,0,0,0,.93,2.91,6.23,6.23,0,0,0,3.05,2.62,6.74,6.74,0,0,0,3.83.66,3.2,3.2,0,0,0,2.58-1.95,2.85,2.85,0,0,0,.17-2.18,6.07,6.07,0,0,0-1.51-2.2q-1.16-1.16-3.64-3.2a14.47,14.47,0,0,1-4.3-5,5.65,5.65,0,0,1,.23-4.72,6.49,6.49,0,0,1,2.76-3,8.16,8.16,0,0,1,4.29-1,13.21,13.21,0,0,1,5.14,1.3,11.84,11.84,0,0,1,4.11,3A9.58,9.58,0,0,1,124,323a5.54,5.54,0,0,1-.09,3.48.82.82,0,0,1-1.08.4l-1.38-.63a1.21,1.21,0,0,1-.54-.43,1.5,1.5,0,0,1-.17-.79,6.11,6.11,0,0,0-.95-3.12,7.29,7.29,0,0,0-3.42-2.79,8.47,8.47,0,0,0-4.64-.85,3.49,3.49,0,0,0-3,2,2.59,2.59,0,0,0,0,2.28,8.16,8.16,0,0,0,1.85,2.4q1.31,1.23,3.95,3.38a10.32,10.32,0,0,1,3.59,4.6,6.24,6.24,0,0,1-.37,4.62,6.67,6.67,0,0,1-2.39,2.81,7.15,7.15,0,0,1-3.82,1.14,11.85,11.85,0,0,1-8.81-4.14,9,9,0,0,1-1.84-3.8,5.7,5.7,0,0,1,.11-3.17A.65.65,0,0,1,101.52,330Z"/><path class="cls-1" d="M67.86,306.75a.85.85,0,0,1,.61.18l1.19.95a1.1,1.1,0,0,1,.42.54,2,2,0,0,1,0,.81,7,7,0,0,0,.2,3,6.23,6.23,0,0,0,2.33,3.28,6.74,6.74,0,0,0,3.56,1.56,3.2,3.2,0,0,0,3-1.27,2.85,2.85,0,0,0,.69-2.08,6.06,6.06,0,0,0-.94-2.5q-.84-1.4-2.77-4a14.47,14.47,0,0,1-3-5.85,5.65,5.65,0,0,1,1.36-4.52,6.49,6.49,0,0,1,3.41-2.3,8.15,8.15,0,0,1,4.39.09,13.22,13.22,0,0,1,4.68,2.5,11.84,11.84,0,0,1,3.26,3.92,9.58,9.58,0,0,1,1.13,4.28,5.54,5.54,0,0,1-.92,3.36.82.82,0,0,1-1.14.13l-1.19-.95a1.21,1.21,0,0,1-.42-.54,1.49,1.49,0,0,1,0-.81,6.12,6.12,0,0,0-.17-3.26,7.28,7.28,0,0,0-2.65-3.53,8.47,8.47,0,0,0-4.3-1.93,3.49,3.49,0,0,0-3.36,1.22,2.59,2.59,0,0,0-.51,2.22,8.14,8.14,0,0,0,1.22,2.77q1,1.51,3,4.23a10.32,10.32,0,0,1,2.38,5.33A6.24,6.24,0,0,1,81.87,318a6.67,6.67,0,0,1-3,2.16,7.15,7.15,0,0,1-4,.19,11.85,11.85,0,0,1-7.56-6.13,9,9,0,0,1-.88-4.13,5.7,5.7,0,0,1,.87-3A.65.65,0,0,1,67.86,306.75Z"/><path class="cls-1" d="M44.19,291.72a1,1,0,0,1,.32-.69l1-.9a1,1,0,0,1,1.41.06l4.68,5.1,15.9-14.58a1,1,0,0,1,1.41.06l1,1.12a1,1,0,0,1-.06,1.41L54,297.88l4.68,5.1a1,1,0,0,1-.06,1.41l-1,.9a1,1,0,0,1-1.41-.06L44.45,292.44A1,1,0,0,1,44.19,291.72Z"/><path class="cls-1" d="M58.85,269a1,1,0,0,1-.4.65l-19.39,14a1,1,0,0,1-1.39-.23l-.89-1.23a1,1,0,0,1,.23-1.39l19.39-14a1,1,0,0,1,1.39.23l.89,1.23A1,1,0,0,1,58.85,269Z"/><path class="cls-1" d="M41.53,245.93a1,1,0,0,1,.47-.6l1.16-.65a1,1,0,0,1,1.36.39l7.31,13.16a1,1,0,0,1-.39,1.36L30.56,271.21a1,1,0,0,1-1.36-.39l-.74-1.33a1,1,0,0,1,.39-1.36l18.86-10.48-6.09-11A1,1,0,0,1,41.53,245.93Z"/><path class="cls-1" d="M33.1,224.06a1,1,0,0,1,.56-.52l1.25-.46a1,1,0,0,1,1.28.59L41.4,237.8a1,1,0,0,1-.59,1.28l-22.43,8.27a1,1,0,0,1-1.28-.59l-.52-1.42a1,1,0,0,1,.59-1.28l20.24-7.46-4.34-11.77A1,1,0,0,1,33.1,224.06Z"/><path class="cls-1" d="M36.51,122.45,18.51,112a1.24,1.24,0,0,1-.57-.66,1.16,1.16,0,0,1,0-.76l.5-1.39a.82.82,0,0,1,1-.49l.27.13,20,12a3.65,3.65,0,0,1,1.18,1,1.47,1.47,0,0,1,0,1.31l-.5,1.39a1.48,1.48,0,0,1-.88,1,3.92,3.92,0,0,1-1.57.15l-12.78-.95,10.49,7.36a3.94,3.94,0,0,1,1.12,1.11,1.48,1.48,0,0,1,.06,1.32l-.5,1.39a1.47,1.47,0,0,1-.85,1A3.63,3.63,0,0,1,34,137l-23.06-3.4-.29-.06a.82.82,0,0,1-.49-1l.5-1.39a1.16,1.16,0,0,1,.47-.6,1.24,1.24,0,0,1,.86-.15l20.54,3.33-12.43-8.76a1.61,1.61,0,0,1-.55-.59,1.1,1.1,0,0,1,0-1l.42-1.19a1.1,1.1,0,0,1,.63-.72,1.62,1.62,0,0,1,.8-.11Z"/><path class="cls-1" d="M45.21,106.73,51.46,96a1,1,0,0,1,1.37-.36l1.15.67a1,1,0,0,1,.36,1.37l-7.51,12.92a1,1,0,0,1-1.37.36l-20.66-12a1,1,0,0,1-.36-1.37L31.8,84.89a1,1,0,0,1,1.37-.36l1.15.67a1,1,0,0,1,.36,1.37l-6.1,10.49L35.33,101,41,91.19a1,1,0,0,1,1.37-.36l1.15.67a1,1,0,0,1,.36,1.37l-5.69,9.79Z"/><path class="cls-1" d="M48.11,64.76a1,1,0,0,1,0-1.41L55,56.24a8.86,8.86,0,0,1,4.11-2.61,6.72,6.72,0,0,1,3.76,0,7.06,7.06,0,0,1,2.77,1.61,5.28,5.28,0,0,1,1.71,3,7.8,7.8,0,0,1,0,2.71A8.38,8.38,0,0,1,71,61a6.73,6.73,0,0,1,3.25,1.78,7.47,7.47,0,0,1,2,3.22,7.24,7.24,0,0,1,.06,4,8.62,8.62,0,0,1-2.3,3.91l-7.27,7.49a1,1,0,0,1-1.41,0Zm9.48,4.31,4.9-5a6,6,0,0,0,1.89-3.33,3.69,3.69,0,0,0-4-3.87,6,6,0,0,0-3.27,2l-4.9,5ZM66,77.27l5.26-5.42A5.25,5.25,0,0,0,73,68.37a3.88,3.88,0,0,0-1.22-3,4.06,4.06,0,0,0-3.05-1.21A5.17,5.17,0,0,0,65.24,66L60,71.39Z"/><path class="cls-1" d="M82.35,34.73a8.94,8.94,0,0,1,4.94.89,11.39,11.39,0,0,1,4,3.38q1.36,1.76,2,2.63t1.86,2.72a11.74,11.74,0,0,1,1.9,4.9,9,9,0,0,1-.72,5,11.7,11.7,0,0,1-8.8,6.33,9,9,0,0,1-4.93-.9,11.73,11.73,0,0,1-4-3.36q-.68-.88-2-2.65t-1.89-2.69a11.37,11.37,0,0,1-1.93-4.87,8.93,8.93,0,0,1,.73-5,11.77,11.77,0,0,1,8.83-6.35Zm-6.11,9A7.15,7.15,0,0,0,77.69,49q.62.92,1.79,2.54t1.84,2.5a7.14,7.14,0,0,0,4.57,3.05,7.42,7.42,0,0,0,7.75-5.57,7.15,7.15,0,0,0-1.44-5.3Q91,44.4,90.44,43.68T88.56,41.2A7.15,7.15,0,0,0,84,38.15a7.42,7.42,0,0,0-7.75,5.57Z"/><path class="cls-1" d="M110.28,18.51a1,1,0,0,1,.58.5l.59,1.19a1,1,0,0,1-.45,1.34l-6.19,3.08,9.61,19.31a1,1,0,0,1-.45,1.34l-1.36.68a1,1,0,0,1-1.34-.45l-9.61-19.31-6.2,3.08a1,1,0,0,1-1.34-.45l-.59-1.19A1,1,0,0,1,94,26.29l15.54-7.73A1,1,0,0,1,110.28,18.51Z"/><path class="cls-1" d="M139.09,8.91a1,1,0,0,1,.48.59l6.83,22.91a1,1,0,0,1-.67,1.24l-1.45.43a1,1,0,0,1-1.24-.67l-3-10-12.48,3.72,3,10a1,1,0,0,1-.67,1.24l-1.45.43a1,1,0,0,1-.75-.07.94.94,0,0,1-.49-.61l-6.83-22.91A1,1,0,0,1,121,14l1.45-.43a1,1,0,0,1,1.24.67l2.9,9.72,12.48-3.72-2.9-9.72a1,1,0,0,1,.67-1.24l1.45-.43A1,1,0,0,1,139.09,8.91Z"/><path class="cls-1" d="M184.26,28.24a1,1,0,0,1,.4.65.82.82,0,0,1-.78.84l-2.29.09a1.82,1.82,0,0,1-1.35-.5l-10.84-9.58.36,9.54a1,1,0,0,1-1,1l-1.52.06a1,1,0,0,1-1-1l-.91-23.88a1,1,0,0,1,1-1l1.52-.06a1,1,0,0,1,1,1l.33,8.61,9.53-9.44A1.82,1.82,0,0,1,180,4l2.14-.08a.82.82,0,0,1,.84.78,1,1,0,0,1-.34.68L171.2,16.71Z"/><path class="cls-1" d="M206.46,31.88a3.91,3.91,0,0,1-.55-.89l-9.54-19.52-2.39,18a1,1,0,0,1-1.12.86l-1.5-.2a1,1,0,0,1-.86-1.12l3.14-23.69a1,1,0,0,1,1.12-.86l1.28.17a1.18,1.18,0,0,1,.77.4,3.93,3.93,0,0,1,.55.89l9.54,19.52,2.39-18a1,1,0,0,1,1.12-.86l1.5.2a1,1,0,0,1,.86,1.12l-3.14,23.69a1,1,0,0,1-1.12.86l-1.28-.17A1.18,1.18,0,0,1,206.46,31.88Z"/><path class="cls-1" d="M239.2,15.25a9,9,0,0,1,2.21,4.51,11.38,11.38,0,0,1-.36,5.23q-.62,2.13-.95,3.16T239,31.26a11.73,11.73,0,0,1-2.82,4.43,9,9,0,0,1-4.42,2.36,11.7,11.7,0,0,1-10.31-3.35,9,9,0,0,1-2.19-4.5A11.73,11.73,0,0,1,219.6,25q.31-1.07,1-3.14t1.05-3.12a11.37,11.37,0,0,1,2.79-4.44,8.93,8.93,0,0,1,4.44-2.35,11.77,11.77,0,0,1,10.35,3.36Zm-10.87.4a7.15,7.15,0,0,0-3.42,4.3q-.38,1-1,2.94t-.92,3a7.15,7.15,0,0,0,.24,5.49,7.42,7.42,0,0,0,9.08,2.95,7.15,7.15,0,0,0,3.42-4.3q.76-2.09,1-2.93t.89-3a7.15,7.15,0,0,0-.24-5.49,7.42,7.42,0,0,0-9.08-2.95Z"/><path class="cls-1" d="M259.93,47.69l13.21-16.07a1.24,1.24,0,0,1,.74-.46,1.16,1.16,0,0,1,.75.14l1.29.72a.82.82,0,0,1,.32,1.11l-.18.24L261,51.17a3.64,3.64,0,0,1-1.23,1,1.47,1.47,0,0,1-1.29-.19l-1.29-.72a1.48,1.48,0,0,1-.83-1,3.92,3.92,0,0,1,.11-1.57l3-12.46-9,9.16a3.94,3.94,0,0,1-1.27.92,1.48,1.48,0,0,1-1.31-.15l-1.29-.72a1.47,1.47,0,0,1-.84-1,3.64,3.64,0,0,1,.19-1.57l7.1-22.21.11-.28A.82.82,0,0,1,254.3,20l1.29.72a1.16,1.16,0,0,1,.51.56,1.24,1.24,0,0,1,0,.87l-6.61,19.73,10.66-10.85a1.61,1.61,0,0,1,.67-.45,1.1,1.1,0,0,1,.95.12l1.1.61a1.1,1.1,0,0,1,.61.74,1.62,1.62,0,0,1,0,.81Z"/><path class="cls-1" d="M307.27,58.64a1,1,0,0,1-.27.71l-.91,1a1,1,0,0,1-1.41,0l-5-4.75-14.8,15.7a1,1,0,0,1-1.41,0l-1.1-1a1,1,0,0,1,0-1.41l14.8-15.7-5-4.75a1,1,0,0,1,0-1.41l.91-1a1,1,0,0,1,1.41,0L307,57.95A1,1,0,0,1,307.27,58.64Z"/><path class="cls-1" d="M326.26,82.3a1,1,0,0,1-.38.66l-19.1,14.37a1,1,0,0,1-1.4-.2l-.91-1.21a1,1,0,0,1,.2-1.4L313,88.25l-7.83-10.41-8.34,6.27a1,1,0,0,1-1.4-.2l-.91-1.21a1,1,0,0,1-.2-.73.94.94,0,0,1,.4-.67l19.1-14.37a1,1,0,0,1,1.4.2l.91,1.21a1,1,0,0,1-.2,1.4l-8.1,6.09,7.83,10.41,8.1-6.09a1,1,0,0,1,1.4.2l.91,1.21A1,1,0,0,1,326.26,82.3Z"/><path class="cls-1" d="M316.81,105l-5.26.46a1.37,1.37,0,0,1-1.47-.88l-.61-1.23a.82.82,0,0,1,.37-1.09,1.39,1.39,0,0,1,.53-.1l24.94-2.26a1.7,1.7,0,0,1,1.83.95l1,2a1.7,1.7,0,0,1-.35,2l-16.9,18.47a1.41,1.41,0,0,1-.4.36.82.82,0,0,1-1.09-.37l-.61-1.23a1.37,1.37,0,0,1,.19-1.7l3.55-3.91Zm8.12,8.86,9.56-10.45-14.12,1.27Z"/><path class="cls-1" d="M350.12,135.31a1,1,0,0,1-.58.5l-1.27.41a1,1,0,0,1-1.26-.65L344.91,129l-20.54,6.58a1,1,0,0,1-1.26-.65l-.46-1.44a1,1,0,0,1,.65-1.26l20.54-6.58L341.72,119a1,1,0,0,1,.65-1.26l1.27-.41a1,1,0,0,1,1.26.65l5.29,16.53A1,1,0,0,1,350.12,135.31Z"/></svg>