<?xml version="1.0" encoding="UTF-8" standalone="no"?>
<svg width="120px" height="123px" viewBox="0 0 120 123" version="1.1" xmlns="http://www.w3.org/2000/svg" xmlns:xlink="http://www.w3.org/1999/xlink">
    <!-- Generator: Sketch 41.2 (35397) - http://www.bohemiancoding.com/sketch -->
    <title>Group 23</title>
    <desc>Created with Sketch.</desc>
    <defs></defs>
    <g id="Page-1" stroke="none" stroke-width="1" fill="none" fill-rule="evenodd">
        <g id="Group-23" fill="#000000">
            <path d="M118.061972,79.054644 C117.838221,78.7347097 117.451697,78.2028609 116.909159,77.4878787 C115.976461,76.2587255 114.887739,74.8950139 113.650608,73.4300524 C110.124836,69.2549739 106.100919,65.0825818 101.634717,61.1796374 C88.6778998,49.8568776 74.6636544,43 60,43 C45.3361573,43 31.3202658,49.8591553 18.3606516,61.1856609 C13.8935225,65.0898639 9.86860341,69.2635987 6.3418219,73.4400161 C5.10434047,74.9054425 4.01529366,76.269584 3.08230473,77.4991209 C2.53383919,78.2219146 2.14476743,78.7575995 1.922074,79.0764574 C0.278185637,81.3596665 0.274197402,84.6571545 1.93802846,86.945356 C2.16177933,87.2652903 2.54830324,87.7971391 3.09084118,88.5121213 C4.02353876,89.7412745 5.11226051,91.1049861 6.34939196,92.5699476 C9.87516429,96.7450261 13.8990807,100.917418 18.3652831,104.820363 C31.3221002,116.143122 45.3363456,123 60,123 C74.6638427,123 88.6797342,116.140845 101.639348,104.814339 C106.106478,100.910136 110.131397,96.7364013 113.658178,92.5599839 C114.89566,91.0945575 115.984706,89.730416 116.917695,88.5008791 C117.466161,87.7780854 117.855233,87.2424005 118.077926,86.9235426 C119.721814,84.6403335 119.725803,81.3428455 118.061972,79.054644 Z M8.39356327,82.2205309 C8.40855055,82.2405628 8.42296659,82.2605559 8.43681192,82.2805129 L8.39356327,82.2205309 Z M111.597154,82.2333082 L111.563804,82.2799348 C111.574578,82.2644117 111.585695,82.2488699 111.597154,82.2333082 Z M8.95718122,82.9998368 C8.86760885,82.8784863 8.78374493,82.7638077 8.70564432,82.6560152 C8.5846005,82.4889536 8.50771316,82.3805197 8.47605316,82.3349371 C8.77548042,82.7686799 8.77267766,83.2352874 8.43619603,83.7200652 C8.49878159,83.6312457 8.57570794,83.5227594 8.69680622,83.3556254 C8.77747293,83.2442931 8.86428473,83.1256183 8.95718122,82.9998368 C9.10738061,82.7964675 9.27348655,82.5745201 9.45524372,82.3349919 C10.3063906,81.2133104 11.3089342,79.9575229 12.4540403,78.6014874 C15.7346517,74.7165849 19.4836238,70.8289997 23.6252241,67.2093041 C35.2619799,57.0389566 47.60189,51 60,51 C72.3982984,51 84.7365096,57.0368291 96.3704874,67.2035803 C100.511063,70.8219648 104.258947,74.7081394 107.538477,78.5916275 C108.683202,79.9471643 109.685391,81.2024869 110.536219,82.323749 C110.721436,82.5678367 110.890393,82.7936602 111.042819,83.0001632 C111.132391,83.1215137 111.216255,83.2361923 111.294356,83.3439848 C111.4154,83.5110464 111.492287,83.6194803 111.523947,83.6650629 C111.22452,83.2313201 111.227322,82.7647126 111.563804,82.2799348 C111.501218,82.3687543 111.424292,82.4772406 111.303194,82.6443746 C111.222527,82.7557069 111.135715,82.8743817 111.042819,83.0001632 C110.892619,83.2035325 110.726513,83.4254799 110.544756,83.6650081 C109.693609,84.7866896 108.691066,86.0424771 107.54596,87.3985126 C104.265348,91.2834151 100.516376,95.1710003 96.3747759,98.7906959 C84.7380201,108.961043 72.39811,115 60,115 C47.6017016,115 35.2634904,108.963171 23.6295126,98.7964197 C19.4889368,95.1780352 15.7410527,91.2918606 12.4615227,87.4083725 C11.3167984,86.0528357 10.3146091,84.7975131 9.46378071,83.676251 C9.27856374,83.4321633 9.10960718,83.2063398 8.95718122,82.9998368 Z M63,24 L63,4 C63,1.790861 61.209139,0 59,0 C56.790861,0 55,1.790861 55,4 L55,24 C55,26.209139 56.790861,28 59,28 C61.209139,28 63,26.209139 63,24 Z M33.4641016,27.3205081 L23.4641016,10 C22.3595321,8.08682951 19.9131705,7.43132889 18,8.53589838 C16.0868295,9.64046788 15.4313289,12.0868295 16.5358984,14 L26.5358984,31.3205081 C27.6404679,33.2336786 30.0868295,33.8891792 32,32.7846097 C33.9131705,31.6800402 34.5686711,29.2336786 33.4641016,27.3205081 Z M91.4641016,31.3205081 L101.464102,14 C102.568671,12.0868295 101.91317,9.64046788 100,8.53589838 C98.0868295,7.43132889 95.6404679,8.08682951 94.5358984,10 L84.5358984,27.3205081 C83.4313289,29.2336786 84.0868295,31.6800402 86,32.7846097 C87.9131705,33.8891792 90.3595321,33.2336786 91.4641016,31.3205081 Z" id="Combined-Shape"></path>
            <path d="M60,97 C67.7319865,97 74,90.7319865 74,83 C74,75.2680135 67.7319865,69 60,69 C52.2680135,69 46,75.2680135 46,83 C46,90.7319865 52.2680135,97 60,97 Z M60,89 C56.6862915,89 54,86.3137085 54,83 C54,79.6862915 56.6862915,77 60,77 C63.3137085,77 66,79.6862915 66,83 C66,86.3137085 63.3137085,89 60,89 Z" id="Oval-16-Copy"></path>
        </g>
    </g>
</svg>