<?xml version="1.0" encoding="UTF-8" standalone="no"?>
<svg width="100px" height="105px" viewBox="0 0 100 105" version="1.1" xmlns="http://www.w3.org/2000/svg" xmlns:xlink="http://www.w3.org/1999/xlink">
    <!-- Generator: Sketch 41.2 (35397) - http://www.bohemiancoding.com/sketch -->
    <title>Group 5</title>
    <desc>Created with Sketch.</desc>
    <defs>
        <path d="M41.6108125,54.498318 L39.416966,54.498318 C39.3432152,54.6239916 39.2376483,54.7569729 39.0990834,54.8945739 L36.8493864,57.1286196 C36.0674987,57.9050676 34.8009387,57.9046394 34.0194822,57.1286196 L31.7697852,54.8945739 C31.6312005,54.7569532 31.5255216,54.6239755 31.4516101,54.498318 L29.2577636,54.498318 C29.1840128,54.6239916 29.0784459,54.7569729 28.939881,54.8945739 L26.690184,57.1286196 C25.9082963,57.9050676 24.6417362,57.9046394 23.8602797,57.1286196 L21.6105828,54.8945739 C21.471998,54.7569532 21.3663192,54.6239755 21.2924076,54.498318 L19.0985611,54.498318 C19.0248104,54.6239916 18.9192435,54.7569729 18.7806785,54.8945739 L16.5309816,57.1286196 C15.7490939,57.9050676 14.4825338,57.9046394 13.7010773,57.1286196 L11.4513804,54.8945739 C11.3127956,54.7569532 11.2071168,54.6239755 11.1332052,54.498318 L8.9393587,54.498318 C8.86560793,54.6239916 8.76004106,54.7569729 8.6214761,54.8945739 L6.37177915,57.1286196 C5.58989146,57.9050676 4.32333137,57.9046394 3.54187489,57.1286196 L1.29217793,54.8945739 C1.15359319,54.7569532 1.04791436,54.6239755 0.97400277,54.498318 L0.893146046,54.498318 L0.893146046,54.3326659 C0.825905491,54.1572761 0.827136369,54.000576 0.893146046,53.8712489 L0.893146046,4.68276534 C0.827136369,4.55343824 0.825905491,4.39673819 0.893146046,4.22134834 L0.893146046,4.05569619 L0.97400277,4.05569619 C1.04791436,3.93003879 1.15359319,3.797061 1.29217793,3.65944039 L3.54187489,1.42539469 C4.32333137,0.649374833 5.58989146,0.648946624 6.37177915,1.42539469 L8.6214761,3.65944039 C8.76004106,3.79704135 8.86560793,3.93002263 8.9393587,4.05569619 L11.1332052,4.05569619 C11.2071168,3.93003879 11.3127956,3.797061 11.4513804,3.65944039 L13.7010773,1.42539469 C14.4825338,0.649374833 15.7490939,0.648946624 16.5309816,1.42539469 L18.7806785,3.65944039 C18.9192435,3.79704135 19.0248104,3.93002263 19.0985611,4.05569619 L21.2924076,4.05569619 C21.3663192,3.93003879 21.471998,3.797061 21.6105828,3.65944039 L23.8602797,1.42539469 C24.6417362,0.649374833 25.9082963,0.648946624 26.690184,1.42539469 L28.939881,3.65944039 C29.0784459,3.79704135 29.1840128,3.93002263 29.2577636,4.05569619 L31.4516101,4.05569619 C31.5255216,3.93003879 31.6312005,3.797061 31.7697852,3.65944039 L34.0194822,1.42539469 C34.8009387,0.649374833 36.0674987,0.648946624 36.8493864,1.42539469 L39.0990834,3.65944039 C39.2376483,3.79704135 39.3432152,3.93002263 39.416966,4.05569619 L41.6108125,4.05569619 C41.6847241,3.93003879 41.7904029,3.797061 41.9289876,3.65944039 L44.1786846,1.42539469 C44.9601411,0.649374833 46.2267012,0.648946624 47.0085889,1.42539469 L49.2582858,3.65944039 C49.3968508,3.79704135 49.5024176,3.93002263 49.5761684,4.05569619 L49.6573177,4.05569619 L49.6573177,4.22278651 C49.7232302,4.39634824 49.7219907,4.55158895 49.6573177,4.6800523 L49.6573177,53.8739619 C49.7219907,54.0024253 49.7232302,54.157666 49.6573177,54.3312277 L49.6573177,54.498318 L49.5761684,54.498318 C49.5024176,54.6239916 49.3968508,54.7569729 49.2582858,54.8945739 L47.0085889,57.1286196 C46.2267012,57.9050676 44.9601411,57.9046394 44.1786846,57.1286196 L41.9289876,54.8945739 C41.7904029,54.7569532 41.6847241,54.6239755 41.6108125,54.498318 Z" id="path-1"></path>
        <filter x="-50%" y="-50%" width="200%" height="200%" filterUnits="objectBoundingBox" id="filter-2">
            <feMorphology radius="2" operator="dilate" in="SourceAlpha" result="shadowSpreadOuter1"></feMorphology>
            <feOffset dx="0" dy="0" in="shadowSpreadOuter1" result="shadowOffsetOuter1"></feOffset>
            <feGaussianBlur stdDeviation="10" in="shadowOffsetOuter1" result="shadowBlurOuter1"></feGaussianBlur>
            <feComposite in="shadowBlurOuter1" in2="SourceAlpha" operator="out" result="shadowBlurOuter1"></feComposite>
            <feColorMatrix values="0 0 0 0 0   0 0 0 0 0   0 0 0 0 0  0 0 0 0.25 0" type="matrix" in="shadowBlurOuter1"></feColorMatrix>
        </filter>
    </defs>
    <g id="Page-1" stroke="none" stroke-width="1" fill="none" fill-rule="evenodd">
        <g id="Nike" transform="translate(-342.000000, -659.000000)">
            <g id="Group-5" transform="translate(391.242088, 711.482325) rotate(-345.000000) translate(-391.242088, -711.482325) translate(366.242088, 682.482325)">
                <g id="Combined-Shape">
                    <use fill="black" fill-opacity="1" filter="url(#filter-2)" xlink:href="#path-1"></use>
                    <use stroke="#111111" stroke-width="4" stroke-linecap="round" stroke-linejoin="round" fill="#FFC100" fill-rule="evenodd" xlink:href="#path-1"></use>
                </g>
                <ellipse id="Oval" stroke="#111111" stroke-width="4" cx="25.2403633" cy="29.1061457" rx="18.2865644" ry="18.1593439"></ellipse>
                <ellipse id="Oval-Copy" stroke="#111111" stroke-width="4" cx="25.2403633" cy="29.1061457" rx="13.2069632" ry="13.1150817"></ellipse>
            </g>
        </g>
    </g>
</svg>