<?xml version="1.0" encoding="UTF-8" standalone="no"?>
<svg width="164px" height="116px" viewBox="0 0 164 116" version="1.1" xmlns="http://www.w3.org/2000/svg" xmlns:xlink="http://www.w3.org/1999/xlink">
    <!-- Generator: Sketch 41.2 (35397) - http://www.bohemiancoding.com/sketch -->
    <title>Group 4</title>
    <desc>Created with Sketch.</desc>
    <defs>
        <path d="M48.4146979,63.4973204 L45.9932692,63.4973204 C45.9349058,63.5728881 45.8659758,63.6504896 45.7862951,63.729616 L42.7031207,66.7913407 C41.9188932,67.5701122 40.6508447,67.5688108 39.8679278,66.7913407 L36.7847533,63.729616 C36.705052,63.6504692 36.6361942,63.5728696 36.5779632,63.4973204 L34.1565345,63.4973204 C34.0981711,63.5728881 34.0292411,63.6504896 33.9495604,63.729616 L30.866386,66.7913407 C30.0821585,67.5701122 28.81411,67.5688108 28.0311931,66.7913407 L24.9480186,63.729616 C24.8683173,63.6504692 24.7994595,63.5728696 24.7412285,63.4973204 L22.3197998,63.4973204 C22.2614364,63.5728881 22.1925064,63.6504896 22.1128257,63.729616 L19.0296513,66.7913407 C18.2454238,67.5701122 16.9773753,67.5688108 16.1944584,66.7913407 L13.1112839,63.729616 C13.0315826,63.6504692 12.9627248,63.5728696 12.9044938,63.4973204 L10.4830651,63.4973204 C10.4247017,63.5728881 10.3557717,63.6504896 10.276091,63.729616 L7.19291657,66.7913407 C6.40868911,67.5701122 5.14064059,67.5688108 4.35772369,66.7913407 L1.27454923,63.729616 C1.19484789,63.6504692 1.12599012,63.5728696 1.06775914,63.4973204 L1.04062626,63.4973204 L1.04062626,63.4612221 C0.74592975,63.058805 0.757144817,62.717929 1.04062626,62.516659 L1.04062626,5.70605211 C0.757144817,5.50478202 0.74592975,5.16390608 1.04062626,4.76149097 L1.04062626,4.72539062 L1.06775914,4.72539062 C1.12599012,4.64984142 1.19484789,4.57224191 1.27454923,4.49309506 L4.35772369,1.43137039 C5.14064059,0.653900282 6.40868911,0.652598834 7.19291657,1.43137039 L10.276091,4.49309506 C10.3557717,4.57222141 10.4247017,4.64982301 10.4830651,4.72539062 L12.9044938,4.72539062 C12.9627248,4.64984142 13.0315826,4.57224191 13.1112839,4.49309506 L16.1944584,1.43137039 C16.9773753,0.653900282 18.2454238,0.652598834 19.0296513,1.43137039 L22.1128257,4.49309506 C22.1925064,4.57222141 22.2614364,4.64982301 22.3197998,4.72539062 L24.7412285,4.72539062 C24.7994595,4.64984142 24.8683173,4.57224191 24.9480186,4.49309506 L28.0311931,1.43137039 C28.81411,0.653900282 30.0821585,0.652598834 30.866386,1.43137039 L33.9495604,4.49309506 C34.0292411,4.57222141 34.0981711,4.64982301 34.1565345,4.72539062 L36.5779632,4.72539062 C36.6361942,4.64984142 36.705052,4.57224191 36.7847533,4.49309506 L39.8679278,1.43137039 C40.6508447,0.653900282 41.9188932,0.652598834 42.7031207,1.43137039 L45.7862951,4.49309506 C45.8659758,4.57222141 45.9349058,4.64982301 45.9932692,4.72539062 L48.4146979,4.72539062 C48.4729289,4.64984142 48.5417867,4.57224191 48.621488,4.49309506 L51.7046625,1.43137039 C52.4875794,0.653900282 53.7556279,0.652598834 54.5398553,1.43137039 L57.6230298,4.49309506 C57.7027105,4.57222141 57.7716405,4.64982301 57.8300039,4.72539062 L57.8569528,4.72539062 L57.8569528,4.76115596 C58.1535382,5.16496649 58.1439249,5.50732649 57.8569528,5.70847232 L57.8569528,62.5142387 C58.1439249,62.7153846 58.1535382,63.0577446 57.8569528,63.4615532 L57.8569528,63.4973204 L57.8300039,63.4973204 C57.7716405,63.5728881 57.7027105,63.6504896 57.6230298,63.729616 L54.5398553,66.7913407 C53.7556279,67.5701122 52.4875794,67.5688108 51.7046625,66.7913407 L48.621488,63.729616 C48.5417867,63.6504692 48.4729289,63.5728696 48.4146979,63.4973204 Z" id="path-1"></path>
        <filter x="-50%" y="-50%" width="200%" height="200%" filterUnits="objectBoundingBox" id="filter-2">
            <feMorphology radius="2" operator="dilate" in="SourceAlpha" result="shadowSpreadOuter1"></feMorphology>
            <feOffset dx="0" dy="0" in="shadowSpreadOuter1" result="shadowOffsetOuter1"></feOffset>
            <feGaussianBlur stdDeviation="10" in="shadowOffsetOuter1" result="shadowBlurOuter1"></feGaussianBlur>
            <feComposite in="shadowBlurOuter1" in2="SourceAlpha" operator="out" result="shadowBlurOuter1"></feComposite>
            <feColorMatrix values="0 0 0 0 0   0 0 0 0 0   0 0 0 0 0  0 0 0 0.25 0" type="matrix" in="shadowBlurOuter1"></feColorMatrix>
        </filter>
    </defs>
    <g id="Page-1" stroke="none" stroke-width="1" fill="none" fill-rule="evenodd">
        <g id="Nike" transform="translate(-321.000000, -553.000000)">
            <g id="Group-4" transform="translate(321.000000, 570.000000)">
                <path d="M35.2825,48.2925 C35.8141693,48.7141688 36.08,49.3099961 36.08,50.08 C36.08,50.4100016 36.0250005,50.7766646 35.915,51.18 L34.1,57.615 C33.6233309,59.1916745 32.954171,60.2916635 32.0925,60.915 C31.230829,61.5383364 29.9566751,61.85 28.27,61.85 L2.42,61.85 C1.64999615,61.85 1.05416877,61.7216679 0.6325,61.465 C0.210831225,61.208332 0,60.8600022 0,60.42 C0,60.1999989 0.05499945,59.9616679 0.165,59.705 C0.27500055,59.4116652 0.45833205,59.1641677 0.715,58.9625 C0.97166795,58.7608323 1.2466652,58.5683342 1.54,58.385 C2.1266696,58.0183315 2.6033315,57.6425019 2.97,57.2575 C3.3366685,56.8724981 3.64833205,56.2400044 3.905,55.36 L10.615,31.655 C10.7616674,31.1783309 10.835,30.7200022 10.835,30.28 C10.835,29.8766646 10.770834,29.5375014 10.6425,29.2625 C10.514166,28.9874986 10.3400011,28.6666685 10.12,28.3 C9.78999835,27.8233309 9.625,27.4383348 9.625,27.145 C9.625,27.0349994 9.6616663,26.8333348 9.735,26.54 C9.8816674,26.0633309 10.2024975,25.7241677 10.6975,25.5225 C11.1925025,25.3208323 11.9533282,25.22 12.98,25.22 L25.905,25.22 C26.6750038,25.22 27.2708312,25.3391655 27.6925,25.5775 C28.1141688,25.8158345 28.325,26.1549978 28.325,26.595 C28.325,26.7783342 28.2700005,27.0166652 28.16,27.31 C28.0499994,27.5666679 27.8941677,27.7958323 27.6925,27.9975 C27.4908323,28.1991677 27.3075008,28.3458329 27.1425,28.4375 C26.9774992,28.5291671 26.8583337,28.6116663 26.785,28.685 C26.1983304,29.0150016 25.7216685,29.3816646 25.355,29.785 C24.9883315,30.1883353 24.676668,30.8116624 24.42,31.655 L17.325,56.57 L20.735,56.57 C21.5783376,56.57 22.302497,56.4233348 22.9075,56.13 C23.512503,55.8366652 24.1449967,55.2866707 24.805,54.48 L28.6,49.97 C29.2966701,49.1633293 29.9658301,48.5766685 30.6075,48.21 C31.2491699,47.8433315 32.0283288,47.66 32.945,47.66 C33.9716718,47.66 34.7508307,47.8708312 35.2825,48.2925 Z M128.5525,33.91 C127.984164,34.8633381 127.260004,35.5874975 126.38,36.0825 C125.499996,36.5775025 124.620004,36.825 123.74,36.825 C122.859996,36.825 122.062504,36.6416685 121.3475,36.275 C120.632496,35.9083315 120.036669,35.4133364 119.56,34.79 L106.305,57.12 C105.314995,58.8066751 104.398338,60.016663 103.555,60.75 C102.711662,61.483337 101.758339,61.85 100.695,61.85 C99.5583276,61.85 98.6508367,61.4741704 97.9725,60.7225 C97.2941633,59.9708296 96.8083348,58.7700082 96.515,57.12 L91.895,31.71 C91.7849994,31.0499967 91.5833348,30.5183353 91.29,30.115 C90.9966652,29.7116646 90.6116691,29.271669 90.135,28.795 C89.7683315,28.4649983 89.5116674,28.1991677 89.365,27.9975 C89.2183326,27.7958323 89.145,27.5483348 89.145,27.255 C88.9616657,25.8983265 89.7683243,25.22 91.565,25.22 L105.315,25.22 C106.158338,25.22 106.799998,25.3941649 107.24,25.7425 C107.680002,26.0908351 107.881667,26.5583304 107.845,27.145 C107.845,27.4750016 107.780834,27.7499989 107.6525,27.97 C107.524166,28.1900011 107.313335,28.4649983 107.02,28.795 C106.689998,29.1616685 106.433334,29.5099983 106.25,29.84 C106.066666,30.1700016 105.975,30.5733309 105.975,31.05 C105.975,31.2700011 105.993333,31.4533326 106.03,31.6 L108.12,44.415 L115.435,31.435 C116.71834,29.0883216 117.983327,27.4291715 119.23,26.4575 C120.476673,25.4858285 122.016657,25 123.85,25 C125.536675,25 126.884162,25.4858285 127.8925,26.4575 C128.900838,27.4291715 129.405,28.776658 129.405,30.5 C129.405,31.8200066 129.120836,32.9566619 128.5525,33.91 Z M161.9925,26.1 C162.74417,26.6866696 163.12,27.4933282 163.12,28.52 C163.12,29.0333359 163.046667,29.5283309 162.9,30.005 L161.47,35.12 C161.213332,36.1100049 160.837502,36.7974981 160.3425,37.1825 C159.847498,37.5675019 159.141671,37.76 158.225,37.76 C157.344996,37.76 156.657502,37.5675019 156.1625,37.1825 C155.667498,36.7974981 155.291668,36.1650044 155.035,35.285 L154.155,32.15 C153.971666,31.4899967 153.751668,31.0500011 153.495,30.83 C153.238332,30.6099989 152.743337,30.5 152.01,30.5 L146.235,30.5 L143.485,40.29 L145.905,40.29 C146.161668,40.29 146.509998,40.1066685 146.95,39.74 L148.82,38.09 C149.370003,37.6133309 149.846665,37.2650011 150.25,37.045 C150.653335,36.8249989 151.14833,36.715 151.735,36.715 C152.395003,36.715 152.935831,36.8891649 153.3575,37.2375 C153.779169,37.5858351 153.99,38.0349972 153.99,38.585 C153.99,38.7316674 153.953334,38.9516652 153.88,39.245 L151.625,46.89 C151.404999,47.6966707 151.029169,48.2924981 150.4975,48.6775 C149.965831,49.0625019 149.388336,49.255 148.765,49.255 C147.738328,49.255 146.968336,48.7233386 146.455,47.66 L145.52,45.735 C145.263332,45.1849972 144.860003,44.91 144.31,44.91 L142.165,44.91 L138.92,56.57 L143.76,56.57 C144.45667,56.57 145.070831,56.4325014 145.6025,56.1575 C146.134169,55.8824986 146.711664,55.3966701 147.335,54.7 L150.635,51.07 C151.22167,50.4466635 151.780831,49.9975014 152.3125,49.7225 C152.844169,49.4474986 153.494996,49.31 154.265,49.31 C155.071671,49.31 155.731664,49.4933315 156.245,49.86 C156.758336,50.2266685 157.015,50.776663 157.015,51.51 C157.015,51.8033348 156.960001,52.1516646 156.85,52.555 L155.255,58.11 C154.851665,59.5033403 154.265004,60.4749972 153.495,61.025 C152.724996,61.5750027 151.606674,61.85 150.14,61.85 L123.905,61.85 C123.134996,61.85 122.539169,61.7216679 122.1175,61.465 C121.695831,61.208332 121.485,60.8600022 121.485,60.42 C121.485,60.1999989 121.539999,59.9616679 121.65,59.705 C121.796667,59.3016646 122.034998,58.9900011 122.365,58.77 C122.695002,58.5499989 122.896666,58.4216668 122.97,58.385 C123.55667,58.0183315 124.033332,57.6425019 124.4,57.2575 C124.766668,56.8724981 125.078332,56.2400044 125.335,55.36 L132.1,31.655 C132.246667,31.1783309 132.32,30.7383353 132.32,30.335 C132.32,29.8949978 132.255834,29.5283348 132.1275,29.235 C131.999166,28.9416652 131.806668,28.6300016 131.55,28.3 C131.219998,27.8233309 131.055,27.4383348 131.055,27.145 C131.055,27.0349994 131.091666,26.8333348 131.165,26.54 C131.311667,26.0633309 131.641664,25.7241677 132.155,25.5225 C132.668336,25.3208323 133.419995,25.22 134.41,25.22 L158.83,25.22 C160.186673,25.22 161.24083,25.5133304 161.9925,26.1 Z" id="LOVE" fill="#111111"></path>
                <g id="Group-5" transform="translate(63.294659, 40.476640) rotate(-345.000000) translate(-63.294659, -40.476640) translate(33.794659, 6.476640)">
                    <g id="Combined-Shape">
                        <use fill="black" fill-opacity="1" filter="url(#filter-2)" xlink:href="#path-1"></use>
                        <use stroke="#111111" stroke-width="4" stroke-linecap="round" stroke-linejoin="round" fill="#FFC100" fill-rule="evenodd" xlink:href="#path-1"></use>
                    </g>
                    <ellipse id="Oval" stroke="#111111" stroke-width="4" cx="29.4081633" cy="33.9122807" rx="21.3061224" ry="21.1578947"></ellipse>
                    <ellipse id="Oval-Copy" stroke="#111111" stroke-width="4" cx="29.4081633" cy="33.9122807" rx="15.3877551" ry="15.2807018"></ellipse>
                </g>
            </g>
        </g>
    </g>
</svg>