<?xml version="1.0" encoding="UTF-8" standalone="no"?>
<svg width="154px" height="92px" viewBox="0 0 154 92" version="1.1" xmlns="http://www.w3.org/2000/svg" xmlns:xlink="http://www.w3.org/1999/xlink">
    <!-- Generator: Sketch 41.2 (35397) - http://www.bohemiancoding.com/sketch -->
    <title>Group 3</title>
    <desc>Created with Sketch.</desc>
    <defs>
        <path d="M27.9997182,51.2729519 C30.1689236,49.1042965 42.5516545,36.7144156 50.2929239,28.9742462 C57.2284412,22.0381789 57.0804908,11.9286036 50.7747251,5.65693796 C44.4689593,-0.616377708 34.2724839,-0.588877639 27.9997182,5.71743812 C21.7275025,-0.588877639 11.531027,-0.616377708 5.22526129,5.65693796 C-1.08050446,11.9286036 -1.22790483,22.0381789 5.70706249,28.9742462 C13.4477818,36.7144156 25.8321628,49.1042965 27.9997182,51.2729519 Z" id="path-1"></path>
        <filter x="-50%" y="-50%" width="200%" height="200%" filterUnits="objectBoundingBox" id="filter-2">
            <feMorphology radius="2.5" operator="dilate" in="SourceAlpha" result="shadowSpreadOuter1"></feMorphology>
            <feOffset dx="0" dy="0" in="shadowSpreadOuter1" result="shadowOffsetOuter1"></feOffset>
            <feGaussianBlur stdDeviation="10" in="shadowOffsetOuter1" result="shadowBlurOuter1"></feGaussianBlur>
            <feComposite in="shadowBlurOuter1" in2="SourceAlpha" operator="out" result="shadowBlurOuter1"></feComposite>
            <feColorMatrix values="0 0 0 0 0   0 0 0 0 0   0 0 0 0 0  0 0 0 0.25 0" type="matrix" in="shadowBlurOuter1"></feColorMatrix>
        </filter>
    </defs>
    <g id="Page-1" stroke="none" stroke-width="1" fill="none" fill-rule="evenodd">
        <g id="Nike" transform="translate(-627.000000, -360.000000)">
            <g id="Group-3" transform="translate(627.000000, 376.000000)">
                <path d="M35.2825,39.0725 C35.8141693,39.4941688 36.08,40.0899961 36.08,40.86 C36.08,41.1900017 36.0250005,41.5566647 35.915,41.96 L34.1,48.395 C33.6233309,49.9716745 32.954171,51.0716636 32.0925,51.695 C31.230829,52.3183365 29.9566751,52.63 28.27,52.63 L2.42,52.63 C1.64999615,52.63 1.05416877,52.5016679 0.6325,52.245 C0.210831225,51.9883321 0,51.6400022 0,51.2 C0,50.9799989 0.05499945,50.741668 0.165,50.485 C0.27500055,50.1916652 0.45833205,49.9441677 0.715,49.7425 C0.97166795,49.5408323 1.2466652,49.3483343 1.54,49.165 C2.1266696,48.7983315 2.6033315,48.4225019 2.97,48.0375 C3.3366685,47.6524981 3.64833205,47.0200044 3.905,46.14 L10.615,22.435 C10.7616674,21.9583309 10.835,21.5000022 10.835,21.06 C10.835,20.6566647 10.770834,20.3175014 10.6425,20.0425 C10.514166,19.7674986 10.3400011,19.4466685 10.12,19.08 C9.78999835,18.603331 9.625,18.2183348 9.625,17.925 C9.625,17.8149994 9.6616663,17.6133348 9.735,17.32 C9.8816674,16.843331 10.2024975,16.5041677 10.6975,16.3025 C11.1925025,16.1008323 11.9533282,16 12.98,16 L25.905,16 C26.6750038,16 27.2708312,16.1191655 27.6925,16.3575 C28.1141688,16.5958345 28.325,16.9349978 28.325,17.375 C28.325,17.5583342 28.2700005,17.7966652 28.16,18.09 C28.0499994,18.346668 27.8941677,18.5758323 27.6925,18.7775 C27.4908323,18.9791677 27.3075008,19.1258329 27.1425,19.2175 C26.9774992,19.3091671 26.8583337,19.3916663 26.785,19.465 C26.1983304,19.7950016 25.7216685,20.1616647 25.355,20.565 C24.9883315,20.9683353 24.676668,21.5916625 24.42,22.435 L17.325,47.35 L20.735,47.35 C21.5783376,47.35 22.302497,47.2033348 22.9075,46.91 C23.512503,46.6166652 24.1449967,46.0666707 24.805,45.26 L28.6,40.75 C29.2966701,39.9433293 29.9658301,39.3566685 30.6075,38.99 C31.2491699,38.6233315 32.0283288,38.44 32.945,38.44 C33.9716718,38.44 34.7508307,38.6508312 35.2825,39.0725 Z" id="Path" fill="#111111"></path>
                <path d="M119.432963,24.91 C118.864627,25.8633381 118.140468,26.5874975 117.260463,27.0825 C116.380459,27.5775025 115.500468,27.825 114.620463,27.825 C113.740459,27.825 112.942967,27.6416685 112.227963,27.275 C111.51296,26.9083315 110.917132,26.4133364 110.440463,25.79 L97.1854634,48.12 C96.1954584,49.8066751 95.2788009,51.016663 94.4354634,51.75 C93.5921258,52.483337 92.638802,52.85 91.5754634,52.85 C90.438791,52.85 89.5313001,52.4741704 88.8529634,51.7225 C88.1746267,50.9708296 87.6887982,49.7700083 87.3954634,48.12 L82.7754634,22.71 C82.6654628,22.0499967 82.4637982,21.5183354 82.1704634,21.115 C81.8771286,20.7116646 81.4921324,20.2716691 81.0154634,19.795 C80.6487949,19.4649983 80.3921308,19.1991677 80.2454634,18.9975 C80.098796,18.7958323 80.0254634,18.5483348 80.0254634,18.255 C79.8421291,16.8983266 80.6487877,16.22 82.4454634,16.22 L96.1954634,16.22 C97.0388009,16.22 97.6804612,16.3941649 98.1204634,16.7425 C98.5604656,17.0908351 98.7621302,17.5583304 98.7254634,18.145 C98.7254634,18.4750016 98.6612974,18.7499989 98.5329634,18.97 C98.4046294,19.1900011 98.1937982,19.4649983 97.9004634,19.795 C97.5704617,20.1616685 97.3137976,20.5099983 97.1304634,20.84 C96.9471291,21.1700016 96.8554634,21.573331 96.8554634,22.05 C96.8554634,22.2700011 96.8737965,22.4533326 96.9104634,22.6 L99.0004634,35.415 L106.315463,22.435 C107.598803,20.0883216 108.86379,18.4291715 110.110463,17.4575 C111.357136,16.4858285 112.897121,16 114.730463,16 C116.417138,16 117.764625,16.4858285 118.772963,17.4575 C119.781302,18.4291715 120.285463,19.776658 120.285463,21.5 C120.285463,22.8200066 120.0013,23.9566619 119.432963,24.91 Z" id="Path" fill="#111111"></path>
                <path d="M152.5075,16.88 C153.25917,17.4666696 153.635,18.2733282 153.635,19.3 C153.635,19.8133359 153.561667,20.308331 153.415,20.785 L151.985,25.9 C151.728332,26.890005 151.352502,27.5774981 150.8575,27.9625 C150.362498,28.3475019 149.656671,28.54 148.74,28.54 C147.859996,28.54 147.172502,28.3475019 146.6775,27.9625 C146.182498,27.5774981 145.806668,26.9450044 145.55,26.065 L144.67,22.93 C144.486666,22.2699967 144.266668,21.8300011 144.01,21.61 C143.753332,21.3899989 143.258337,21.28 142.525,21.28 L136.75,21.28 L134,31.07 L136.42,31.07 C136.676668,31.07 137.024998,30.8866685 137.465,30.52 L139.335,28.87 C139.885003,28.393331 140.361665,28.0450011 140.765,27.825 C141.168335,27.6049989 141.66333,27.495 142.25,27.495 C142.910003,27.495 143.450831,27.6691649 143.8725,28.0175 C144.294169,28.3658351 144.505,28.8149973 144.505,29.365 C144.505,29.5116674 144.468334,29.7316652 144.395,30.025 L142.14,37.67 C141.919999,38.4766707 141.544169,39.0724981 141.0125,39.4575 C140.480831,39.8425019 139.903336,40.035 139.28,40.035 C138.253328,40.035 137.483336,39.5033386 136.97,38.44 L136.035,36.515 C135.778332,35.9649973 135.375003,35.69 134.825,35.69 L132.68,35.69 L129.435,47.35 L134.275,47.35 C134.97167,47.35 135.585831,47.2125014 136.1175,46.9375 C136.649169,46.6624986 137.226664,46.1766702 137.85,45.48 L141.15,41.85 C141.73667,41.2266636 142.295831,40.7775014 142.8275,40.5025 C143.359169,40.2274986 144.009996,40.09 144.78,40.09 C145.586671,40.09 146.246664,40.2733315 146.76,40.64 C147.273336,41.0066685 147.53,41.556663 147.53,42.29 C147.53,42.5833348 147.475001,42.9316647 147.365,43.335 L145.77,48.89 C145.366665,50.2833403 144.780004,51.2549973 144.01,51.805 C143.239996,52.3550028 142.121674,52.63 140.655,52.63 L114.42,52.63 C113.649996,52.63 113.054169,52.5016679 112.6325,52.245 C112.210831,51.9883321 112,51.6400022 112,51.2 C112,50.9799989 112.054999,50.741668 112.165,50.485 C112.311667,50.0816647 112.549998,49.7700011 112.88,49.55 C113.210002,49.3299989 113.411666,49.2016669 113.485,49.165 C114.07167,48.7983315 114.548332,48.4225019 114.915,48.0375 C115.281668,47.6524981 115.593332,47.0200044 115.85,46.14 L122.615,22.435 C122.761667,21.9583309 122.835,21.5183354 122.835,21.115 C122.835,20.6749978 122.770834,20.3083348 122.6425,20.015 C122.514166,19.7216652 122.321668,19.4100017 122.065,19.08 C121.734998,18.603331 121.57,18.2183348 121.57,17.925 C121.57,17.8149994 121.606666,17.6133348 121.68,17.32 C121.826667,16.843331 122.156664,16.5041677 122.67,16.3025 C123.183336,16.1008323 123.934995,16 124.925,16 L149.345,16 C150.701673,16 151.75583,16.2933304 152.5075,16.88 Z" id="Path" fill="#111111"></path>
                <g id="Group-2" transform="translate(58.775218, 32.361005) rotate(-15.000000) translate(-58.775218, -32.361005) translate(30.775218, 6.361005)">
                    <g id="Shape">
                        <use fill="black" fill-opacity="1" filter="url(#filter-2)" xlink:href="#path-1"></use>
                        <use stroke="#111111" stroke-width="5" stroke-linecap="round" stroke-linejoin="round" fill="#FF3C38" fill-rule="evenodd" xlink:href="#path-1"></use>
                    </g>
                    <ellipse id="Oval-Copy" stroke="#111111" stroke-width="4" cx="28" cy="16.9304295" rx="10" ry="9.93042952"></ellipse>
                </g>
            </g>
        </g>
    </g>
</svg>