<?xml version="1.0" encoding="UTF-8" standalone="no"?>
<svg width="710px" height="225px" viewBox="0 0 710 225" version="1.1" xmlns="http://www.w3.org/2000/svg" xmlns:xlink="http://www.w3.org/1999/xlink">
    <!-- Generator: Sketch 41.2 (35397) - http://www.bohemiancoding.com/sketch -->
    <title>Waves</title>
    <desc>Created with Sketch.</desc>
    <defs></defs>
    <g id="Page-1" stroke="none" stroke-width="1" fill="none" fill-rule="evenodd">
        <g id="Self-Control" transform="translate(-140.000000, -400.000000)" fill="#FFFFFF">
            <g id="Waves" transform="translate(140.000000, 400.000000)">
                <path d="M0,176.994783 C0,174.23624 2.24419519,172 5,172 C7.76142375,172 10,174.245652 10,176.994783 L10,182.005217 C10,184.76376 7.75580481,187 5,187 C2.23857625,187 0,184.754348 0,182.005217 L0,176.994783 Z M0,82.0061354 C0,79.2413232 2.24419519,77 5,77 C7.76142375,77 10,79.2301197 10,82.0061354 L10,141.993865 C10,144.758677 7.75580481,147 5,147 C2.23857625,147 0,144.76988 0,141.993865 L0,82.0061354 Z M0,41.9947828 C0,39.2362404 2.24419519,37 5,37 C7.76142375,37 10,39.2456516 10,41.9947828 L10,47.0052172 C10,49.7637596 7.75580481,52 5,52 C2.23857625,52 0,49.7543484 0,47.0052172 L0,41.9947828 Z" id="Wave-Length"></path>
                <path d="M35,186.994783 C35,184.23624 37.2441952,182 40,182 C42.7614237,182 45,184.245652 45,186.994783 L45,192.005217 C45,194.76376 42.7558048,197 40,197 C37.2385763,197 35,194.754348 35,192.005217 L35,186.994783 Z M35,66.9932291 C35,64.2355448 37.2441952,62 40,62 C42.7614237,62 45,64.2288496 45,66.9932291 L45,157.006771 C45,159.764455 42.7558048,162 40,162 C37.2385763,162 35,159.77115 35,157.006771 L35,66.9932291 Z M35,31.9947828 C35,29.2362404 37.2441952,27 40,27 C42.7614237,27 45,29.2456516 45,31.9947828 L45,37.0052172 C45,39.7637596 42.7558048,42 40,42 C37.2385763,42 35,39.7543484 35,37.0052172 L35,31.9947828 Z" id="Wave-Length-2"></path>
                <path d="M70,166.994783 C70,164.23624 72.2441952,162 75,162 C77.7614237,162 80,164.245652 80,166.994783 L80,172.005217 C80,174.76376 77.7558048,177 75,177 C72.2385763,177 70,174.754348 70,172.005217 L70,166.994783 Z M70,92.0000319 C70,89.2385905 72.2441952,87 75,87 C77.7614237,87 80,89.245531 80,92.0000319 L80,131.999968 C80,134.761409 77.7558048,137 75,137 C72.2385763,137 70,134.754469 70,131.999968 L70,92.0000319 Z M70,51.9947828 C70,49.2362404 72.2441952,47 75,47 C77.7614237,47 80,49.2456516 80,51.9947828 L80,57.0052172 C80,59.7637596 77.7558048,62 75,62 C72.2385763,62 70,59.7543484 70,57.0052172 L70,51.9947828 Z" id="Wave-Length-3"></path>
                <path d="M105,166.994783 C105,164.23624 107.244195,162 110,162 C112.761424,162 115,164.245652 115,166.994783 L115,172.005217 C115,174.76376 112.755805,177 110,177 C107.238576,177 105,174.754348 105,172.005217 L105,166.994783 Z M105,92.0000319 C105,89.2385905 107.244195,87 110,87 C112.761424,87 115,89.245531 115,92.0000319 L115,131.999968 C115,134.761409 112.755805,137 110,137 C107.238576,137 105,134.754469 105,131.999968 L105,92.0000319 Z M105,51.9947828 C105,49.2362404 107.244195,47 110,47 C112.761424,47 115,49.2456516 115,51.9947828 L115,57.0052172 C115,59.7637596 112.755805,62 110,62 C107.238576,62 105,59.7543484 105,57.0052172 L105,51.9947828 Z" id="Wave-Length-4"></path>
                <path d="M140,186.994783 C140,184.23624 142.244195,182 145,182 C147.761424,182 150,184.245652 150,186.994783 L150,192.005217 C150,194.76376 147.755805,197 145,197 C142.238576,197 140,194.754348 140,192.005217 L140,186.994783 Z M140,66.9932291 C140,64.2355448 142.244195,62 145,62 C147.761424,62 150,64.2288496 150,66.9932291 L150,157.006771 C150,159.764455 147.755805,162 145,162 C142.238576,162 140,159.77115 140,157.006771 L140,66.9932291 Z M140,31.9947828 C140,29.2362404 142.244195,27 145,27 C147.761424,27 150,29.2456516 150,31.9947828 L150,37.0052172 C150,39.7637596 147.755805,42 145,42 C142.238576,42 140,39.7543484 140,37.0052172 L140,31.9947828 Z" id="Wave-Length-5"></path>
                <path d="M175,214.994783 C175,212.23624 177.244195,210 180,210 C182.761424,210 185,212.245652 185,214.994783 L185,220.005217 C185,222.76376 182.755805,225 180,225 C177.238576,225 175,222.754348 175,220.005217 L175,214.994783 Z M175,39.9907684 C175,37.2344431 177.244195,35 180,35 C182.761424,35 185,37.236826 185,39.9907684 L185,180.009232 C185,182.765557 182.755805,185 180,185 C177.238576,185 175,182.763174 175,180.009232 L175,39.9907684 Z M175,4.99478281 C175,2.23624043 177.244195,0 180,0 C182.761424,0 185,2.24565156 185,4.99478281 L185,10.0052172 C185,12.7637596 182.755805,15 180,15 C177.238576,15 175,12.7543484 175,10.0052172 L175,4.99478281 Z" id="Wave-Length-6"></path>
                <path d="M210,186.994783 C210,184.23624 212.244195,182 215,182 C217.761424,182 220,184.245652 220,186.994783 L220,192.005217 C220,194.76376 217.755805,197 215,197 C212.238576,197 210,194.754348 210,192.005217 L210,186.994783 Z M210,66.9932291 C210,64.2355448 212.244195,62 215,62 C217.761424,62 220,64.2288496 220,66.9932291 L220,157.006771 C220,159.764455 217.755805,162 215,162 C212.238576,162 210,159.77115 210,157.006771 L210,66.9932291 Z M210,31.9947828 C210,29.2362404 212.244195,27 215,27 C217.761424,27 220,29.2456516 220,31.9947828 L220,37.0052172 C220,39.7637596 217.755805,42 215,42 C212.238576,42 210,39.7543484 210,37.0052172 L210,31.9947828 Z" id="Wave-Length-7"></path>
                <path d="M245,166.994783 C245,164.23624 247.244195,162 250,162 C252.761424,162 255,164.245652 255,166.994783 L255,172.005217 C255,174.76376 252.755805,177 250,177 C247.238576,177 245,174.754348 245,172.005217 L245,166.994783 Z M245,92.0000319 C245,89.2385905 247.244195,87 250,87 C252.761424,87 255,89.245531 255,92.0000319 L255,131.999968 C255,134.761409 252.755805,137 250,137 C247.238576,137 245,134.754469 245,131.999968 L245,92.0000319 Z M245,51.9947828 C245,49.2362404 247.244195,47 250,47 C252.761424,47 255,49.2456516 255,51.9947828 L255,57.0052172 C255,59.7637596 252.755805,62 250,62 C247.238576,62 245,59.7543484 245,57.0052172 L245,51.9947828 Z" id="Wave-Length-8"></path>
                <path d="M280,166.994783 C280,164.23624 282.244195,162 285,162 C287.761424,162 290,164.245652 290,166.994783 L290,172.005217 C290,174.76376 287.755805,177 285,177 C282.238576,177 280,174.754348 280,172.005217 L280,166.994783 Z M280,92.0000319 C280,89.2385905 282.244195,87 285,87 C287.761424,87 290,89.245531 290,92.0000319 L290,131.999968 C290,134.761409 287.755805,137 285,137 C282.238576,137 280,134.754469 280,131.999968 L280,92.0000319 Z M280,51.9947828 C280,49.2362404 282.244195,47 285,47 C287.761424,47 290,49.2456516 290,51.9947828 L290,57.0052172 C290,59.7637596 287.755805,62 285,62 C282.238576,62 280,59.7543484 280,57.0052172 L280,51.9947828 Z" id="Wave-Length-9"></path>
                <path d="M315,186.994783 C315,184.23624 317.244195,182 320,182 C322.761424,182 325,184.245652 325,186.994783 L325,192.005217 C325,194.76376 322.755805,197 320,197 C317.238576,197 315,194.754348 315,192.005217 L315,186.994783 Z M315,66.9932291 C315,64.2355448 317.244195,62 320,62 C322.761424,62 325,64.2288496 325,66.9932291 L325,157.006771 C325,159.764455 322.755805,162 320,162 C317.238576,162 315,159.77115 315,157.006771 L315,66.9932291 Z M315,31.9947828 C315,29.2362404 317.244195,27 320,27 C322.761424,27 325,29.2456516 325,31.9947828 L325,37.0052172 C325,39.7637596 322.755805,42 320,42 C317.238576,42 315,39.7543484 315,37.0052172 L315,31.9947828 Z" id="Wave-Length-10"></path>
                <path d="M350,214.994783 C350,212.23624 352.244195,210 355,210 C357.761424,210 360,212.245652 360,214.994783 L360,220.005217 C360,222.76376 357.755805,225 355,225 C352.238576,225 350,222.754348 350,220.005217 L350,214.994783 Z M350,39.9907684 C350,37.2344431 352.244195,35 355,35 C357.761424,35 360,37.236826 360,39.9907684 L360,180.009232 C360,182.765557 357.755805,185 355,185 C352.238576,185 350,182.763174 350,180.009232 L350,39.9907684 Z M350,4.99478281 C350,2.23624043 352.244195,0 355,0 C357.761424,0 360,2.24565156 360,4.99478281 L360,10.0052172 C360,12.7637596 357.755805,15 355,15 C352.238576,15 350,12.7543484 350,10.0052172 L350,4.99478281 Z" id="Wave-Length-11"></path>
                <path d="M385,186.994783 C385,184.23624 387.244195,182 390,182 C392.761424,182 395,184.245652 395,186.994783 L395,192.005217 C395,194.76376 392.755805,197 390,197 C387.238576,197 385,194.754348 385,192.005217 L385,186.994783 Z M385,66.9932291 C385,64.2355448 387.244195,62 390,62 C392.761424,62 395,64.2288496 395,66.9932291 L395,157.006771 C395,159.764455 392.755805,162 390,162 C387.238576,162 385,159.77115 385,157.006771 L385,66.9932291 Z M385,31.9947828 C385,29.2362404 387.244195,27 390,27 C392.761424,27 395,29.2456516 395,31.9947828 L395,37.0052172 C395,39.7637596 392.755805,42 390,42 C387.238576,42 385,39.7543484 385,37.0052172 L385,31.9947828 Z" id="Wave-Length-12"></path>
                <path d="M420,166.994783 C420,164.23624 422.244195,162 425,162 C427.761424,162 430,164.245652 430,166.994783 L430,172.005217 C430,174.76376 427.755805,177 425,177 C422.238576,177 420,174.754348 420,172.005217 L420,166.994783 Z M420,92.0000319 C420,89.2385905 422.244195,87 425,87 C427.761424,87 430,89.245531 430,92.0000319 L430,131.999968 C430,134.761409 427.755805,137 425,137 C422.238576,137 420,134.754469 420,131.999968 L420,92.0000319 Z M420,51.9947828 C420,49.2362404 422.244195,47 425,47 C427.761424,47 430,49.2456516 430,51.9947828 L430,57.0052172 C430,59.7637596 427.755805,62 425,62 C422.238576,62 420,59.7543484 420,57.0052172 L420,51.9947828 Z" id="Wave-Length-13"></path>
                <path d="M455,186.994783 C455,184.23624 457.244195,182 460,182 C462.761424,182 465,184.245652 465,186.994783 L465,192.005217 C465,194.76376 462.755805,197 460,197 C457.238576,197 455,194.754348 455,192.005217 L455,186.994783 Z M455,66.9932291 C455,64.2355448 457.244195,62 460,62 C462.761424,62 465,64.2288496 465,66.9932291 L465,157.006771 C465,159.764455 462.755805,162 460,162 C457.238576,162 455,159.77115 455,157.006771 L455,66.9932291 Z M455,31.9947828 C455,29.2362404 457.244195,27 460,27 C462.761424,27 465,29.2456516 465,31.9947828 L465,37.0052172 C465,39.7637596 462.755805,42 460,42 C457.238576,42 455,39.7543484 455,37.0052172 L455,31.9947828 Z" id="Wave-Length-14"></path>
                <path d="M490,166.994783 C490,164.23624 492.244195,162 495,162 C497.761424,162 500,164.245652 500,166.994783 L500,172.005217 C500,174.76376 497.755805,177 495,177 C492.238576,177 490,174.754348 490,172.005217 L490,166.994783 Z M490,92.0000319 C490,89.2385905 492.244195,87 495,87 C497.761424,87 500,89.245531 500,92.0000319 L500,131.999968 C500,134.761409 497.755805,137 495,137 C492.238576,137 490,134.754469 490,131.999968 L490,92.0000319 Z M490,51.9947828 C490,49.2362404 492.244195,47 495,47 C497.761424,47 500,49.2456516 500,51.9947828 L500,57.0052172 C500,59.7637596 497.755805,62 495,62 C492.238576,62 490,59.7543484 490,57.0052172 L490,51.9947828 Z" id="Wave-Length-15"></path>
                <path d="M525,186.994783 C525,184.23624 527.244195,182 530,182 C532.761424,182 535,184.245652 535,186.994783 L535,192.005217 C535,194.76376 532.755805,197 530,197 C527.238576,197 525,194.754348 525,192.005217 L525,186.994783 Z M525,66.9932291 C525,64.2355448 527.244195,62 530,62 C532.761424,62 535,64.2288496 535,66.9932291 L535,157.006771 C535,159.764455 532.755805,162 530,162 C527.238576,162 525,159.77115 525,157.006771 L525,66.9932291 Z M525,31.9947828 C525,29.2362404 527.244195,27 530,27 C532.761424,27 535,29.2456516 535,31.9947828 L535,37.0052172 C535,39.7637596 532.755805,42 530,42 C527.238576,42 525,39.7543484 525,37.0052172 L525,31.9947828 Z" id="Wave-Length-16"></path>
                <path d="M560,166.994783 C560,164.23624 562.244195,162 565,162 C567.761424,162 570,164.245652 570,166.994783 L570,172.005217 C570,174.76376 567.755805,177 565,177 C562.238576,177 560,174.754348 560,172.005217 L560,166.994783 Z M560,92.0000319 C560,89.2385905 562.244195,87 565,87 C567.761424,87 570,89.245531 570,92.0000319 L570,131.999968 C570,134.761409 567.755805,137 565,137 C562.238576,137 560,134.754469 560,131.999968 L560,92.0000319 Z M560,51.9947828 C560,49.2362404 562.244195,47 565,47 C567.761424,47 570,49.2456516 570,51.9947828 L570,57.0052172 C570,59.7637596 567.755805,62 565,62 C562.238576,62 560,59.7543484 560,57.0052172 L560,51.9947828 Z" id="Wave-Length-17"></path>
                <path d="M595,166.994783 C595,164.23624 597.244195,162 600,162 C602.761424,162 605,164.245652 605,166.994783 L605,172.005217 C605,174.76376 602.755805,177 600,177 C597.238576,177 595,174.754348 595,172.005217 L595,166.994783 Z M595,92.0000319 C595,89.2385905 597.244195,87 600,87 C602.761424,87 605,89.245531 605,92.0000319 L605,131.999968 C605,134.761409 602.755805,137 600,137 C597.238576,137 595,134.754469 595,131.999968 L595,92.0000319 Z M595,51.9947828 C595,49.2362404 597.244195,47 600,47 C602.761424,47 605,49.2456516 605,51.9947828 L605,57.0052172 C605,59.7637596 602.755805,62 600,62 C597.238576,62 595,59.7543484 595,57.0052172 L595,51.9947828 Z" id="Wave-Length-18"></path>
                <path d="M630,166.994783 C630,164.23624 632.244195,162 635,162 C637.761424,162 640,164.245652 640,166.994783 L640,172.005217 C640,174.76376 637.755805,177 635,177 C632.238576,177 630,174.754348 630,172.005217 L630,166.994783 Z M630,92.0000319 C630,89.2385905 632.244195,87 635,87 C637.761424,87 640,89.245531 640,92.0000319 L640,131.999968 C640,134.761409 637.755805,137 635,137 C632.238576,137 630,134.754469 630,131.999968 L630,92.0000319 Z M630,51.9947828 C630,49.2362404 632.244195,47 635,47 C637.761424,47 640,49.2456516 640,51.9947828 L640,57.0052172 C640,59.7637596 637.755805,62 635,62 C632.238576,62 630,59.7543484 630,57.0052172 L630,51.9947828 Z" id="Wave-Length-19"></path>
                <path d="M665,186.994783 C665,184.23624 667.244195,182 670,182 C672.761424,182 675,184.245652 675,186.994783 L675,192.005217 C675,194.76376 672.755805,197 670,197 C667.238576,197 665,194.754348 665,192.005217 L665,186.994783 Z M665,66.9932291 C665,64.2355448 667.244195,62 670,62 C672.761424,62 675,64.2288496 675,66.9932291 L675,157.006771 C675,159.764455 672.755805,162 670,162 C667.238576,162 665,159.77115 665,157.006771 L665,66.9932291 Z M665,31.9947828 C665,29.2362404 667.244195,27 670,27 C672.761424,27 675,29.2456516 675,31.9947828 L675,37.0052172 C675,39.7637596 672.755805,42 670,42 C667.238576,42 665,39.7543484 665,37.0052172 L665,31.9947828 Z" id="Wave-Length-20"></path>
                <path d="M700,176.994783 C700,174.23624 702.244195,172 705,172 C707.761424,172 710,174.245652 710,176.994783 L710,182.005217 C710,184.76376 707.755805,187 705,187 C702.238576,187 700,184.754348 700,182.005217 L700,176.994783 Z M700,82.0061354 C700,79.2413232 702.244195,77 705,77 C707.761424,77 710,79.2301197 710,82.0061354 L710,141.993865 C710,144.758677 707.755805,147 705,147 C702.238576,147 700,144.76988 700,141.993865 L700,82.0061354 Z M700,41.9947828 C700,39.2362404 702.244195,37 705,37 C707.761424,37 710,39.2456516 710,41.9947828 L710,47.0052172 C710,49.7637596 707.755805,52 705,52 C702.238576,52 700,49.7543484 700,47.0052172 L700,41.9947828 Z" id="Wave-Length-21"></path>
            </g>
        </g>
    </g>
</svg>