<?xml version="1.0" encoding="UTF-8" standalone="no"?>
<svg width="745px" height="220px" viewBox="0 0 745 220" version="1.1" xmlns="http://www.w3.org/2000/svg" xmlns:xlink="http://www.w3.org/1999/xlink">
    <!-- Generator: Sketch 41.2 (35397) - http://www.bohemiancoding.com/sketch -->
    <title>Group</title>
    <desc>Created with Sketch.</desc>
    <defs></defs>
    <g id="Page-1" stroke="none" stroke-width="1" fill="none" fill-rule="evenodd">
        <g id="Self-Control" transform="translate(-140.000000, -290.000000)" fill="#FFFFFF">
            <g id="Group" transform="translate(140.000000, 290.000000)">
                <rect id="Rectangle-26" x="280" y="85" width="10" height="50" rx="5"></rect>
                <rect id="Rectangle-26-Copy-68" x="630" y="85" width="10" height="50" rx="5"></rect>
                <rect id="Rectangle-26-Copy-36" x="105" y="85" width="10" height="50" rx="5"></rect>
                <rect id="Rectangle-26-Copy-4" x="420" y="85" width="10" height="50" rx="5"></rect>
                <rect id="Rectangle-26-Copy-38" x="245" y="85" width="10" height="50" rx="5"></rect>
                <rect id="Rectangle-26-Copy-70" x="595" y="85" width="10" height="50" rx="5"></rect>
                <rect id="Rectangle-26-Copy-5" x="560" y="85" width="10" height="50" rx="5"></rect>
                <rect id="Rectangle-26-Copy-56" x="70" y="85" width="10" height="50" rx="5"></rect>
                <rect id="Rectangle-26-Copy" x="315" y="60" width="10" height="100" rx="5"></rect>
                <rect id="Rectangle-26-Copy-72" x="665" y="60" width="10" height="100" rx="5"></rect>
                <rect id="Rectangle-26-Copy-40" x="140" y="60" width="10" height="100" rx="5"></rect>
                <rect id="Rectangle-26-Copy-6" x="455" y="60" width="10" height="100" rx="5"></rect>
                <rect id="Rectangle-26-Copy-9" x="455" y="180" width="10" height="15" rx="5"></rect>
                <rect id="Rectangle-26-Copy-88" x="455" y="25" width="10" height="15" rx="5"></rect>
                <rect id="Rectangle-26-Copy-15" x="490" y="165" width="10" height="15" rx="5"></rect>
                <rect id="Rectangle-26-Copy-89" x="490" y="40" width="10" height="15" rx="5"></rect>
                <rect id="Rectangle-26-Copy-59" x="0" y="165" width="10" height="15" rx="5"></rect>
                <rect id="Rectangle-26-Copy-90" x="0" y="40" width="10" height="15" rx="5"></rect>
                <rect id="Rectangle-26-Copy-16" x="525" y="180" width="10" height="15" rx="5"></rect>
                <rect id="Rectangle-26-Copy-91" x="525" y="25" width="10" height="15" rx="5"></rect>
                <rect id="Rectangle-26-Copy-61" x="35" y="180" width="10" height="15" rx="5"></rect>
                <rect id="Rectangle-26-Copy-92" x="35" y="25" width="10" height="15" rx="5"></rect>
                <rect id="Rectangle-26-Copy-17" x="560" y="155" width="10" height="15" rx="5"></rect>
                <rect id="Rectangle-26-Copy-93" x="560" y="50" width="10" height="15" rx="5"></rect>
                <rect id="Rectangle-26-Copy-63" x="70" y="155" width="10" height="15" rx="5"></rect>
                <rect id="Rectangle-26-Copy-94" x="70" y="50" width="10" height="15" rx="5"></rect>
                <rect id="Rectangle-26-Copy-10" x="420" y="155" width="10" height="15" rx="5"></rect>
                <rect id="Rectangle-26-Copy-95" x="420" y="50" width="10" height="15" rx="5"></rect>
                <rect id="Rectangle-26-Copy-42" x="245" y="155" width="10" height="15" rx="5"></rect>
                <rect id="Rectangle-26-Copy-96" x="245" y="50" width="10" height="15" rx="5"></rect>
                <rect id="Rectangle-26-Copy-74" x="595" y="155" width="10" height="15" rx="5"></rect>
                <rect id="Rectangle-26-Copy-97" x="595" y="50" width="10" height="15" rx="5"></rect>
                <rect id="Rectangle-26-Copy-11" x="385" y="180" width="10" height="15" rx="5"></rect>
                <rect id="Rectangle-26-Copy-98" x="385" y="25" width="10" height="15" rx="5"></rect>
                <rect id="Rectangle-26-Copy-44" x="210" y="180" width="10" height="15" rx="5"></rect>
                <rect id="Rectangle-26-Copy-99" x="210" y="25" width="10" height="15" rx="5"></rect>
                <rect id="Rectangle-26-Copy-12" x="350" y="205" width="10" height="15" rx="5"></rect>
                <rect id="Rectangle-26-Copy-100" x="350" y="0" width="10" height="15" rx="5"></rect>
                <rect id="Rectangle-26-Copy-46" x="175" y="205" width="10" height="15" rx="5"></rect>
                <rect id="Rectangle-26-Copy-101" x="175" y="0" width="10" height="15" rx="5"></rect>
                <rect id="Rectangle-26-Copy-13" x="315" y="180" width="10" height="15" rx="5"></rect>
                <rect id="Rectangle-26-Copy-102" x="315" y="25" width="10" height="15" rx="5"></rect>
                <rect id="Rectangle-26-Copy-48" x="140" y="180" width="10" height="15" rx="5"></rect>
                <rect id="Rectangle-26-Copy-103" x="140" y="25" width="10" height="15" rx="5"></rect>
                <rect id="Rectangle-26-Copy-14" x="280" y="155" width="10" height="15" rx="5"></rect>
                <rect id="Rectangle-26-Copy-104" x="280" y="50" width="10" height="15" rx="5"></rect>
                <rect id="Rectangle-26-Copy-79" x="630" y="155" width="10" height="15" rx="5"></rect>
                <rect id="Rectangle-26-Copy-105" x="630" y="50" width="10" height="15" rx="5"></rect>
                <rect id="Rectangle-26-Copy-85" x="665" y="180" width="10" height="15" rx="5"></rect>
                <rect id="Rectangle-26-Copy-106" x="665" y="25" width="10" height="15" rx="5"></rect>
                <rect id="Rectangle-26-Copy-86" x="700" y="205" width="10" height="15" rx="5"></rect>
                <rect id="Rectangle-26-Copy-107" x="700" y="0" width="10" height="15" rx="5"></rect>
                <rect id="Rectangle-26-Copy-87" x="735" y="180" width="10" height="15" rx="5"></rect>
                <rect id="Rectangle-26-Copy-108" x="735" y="25" width="10" height="15" rx="5"></rect>
                <rect id="Rectangle-26-Copy-50" x="105" y="155" width="10" height="15" rx="5"></rect>
                <rect id="Rectangle-26-Copy-109" x="105" y="50" width="10" height="15" rx="5"></rect>
                <rect id="Rectangle-26-Copy-3" x="385" y="60" width="10" height="100" rx="5"></rect>
                <rect id="Rectangle-26-Copy-81" x="735" y="60" width="10" height="100" rx="5"></rect>
                <rect id="Rectangle-26-Copy-52" x="210" y="60" width="10" height="100" rx="5"></rect>
                <rect id="Rectangle-26-Copy-7" x="525" y="60" width="10" height="100" rx="5"></rect>
                <rect id="Rectangle-26-Copy-65" x="35" y="60" width="10" height="100" rx="5"></rect>
                <rect id="Rectangle-26-Copy-2" x="350" y="35" width="10" height="150" rx="5"></rect>
                <rect id="Rectangle-26-Copy-83" x="700" y="35" width="10" height="150" rx="5"></rect>
                <rect id="Rectangle-26-Copy-54" x="175" y="35" width="10" height="150" rx="5"></rect>
                <rect id="Rectangle-26-Copy-8" x="490" y="75" width="10" height="70" rx="5"></rect>
                <rect id="Rectangle-26-Copy-67" x="0" y="75" width="10" height="70" rx="5"></rect>
            </g>
        </g>
    </g>
</svg>